# xmcd CD database file
#
# Track frame offsets:
#	150
#	72868
#	126260
#	145954
#	223358
#
# Disc length: 4085 seconds
#
# Revision: 0
# Processed by: cddbd v1.5.1PL0 Copyright (c) Steve Scherf et al.
# Submitted via: CDex 1.51
#
DISCID=530ff305
DTITLE=Dick Morrissey - There And Back
DYEAR=1965
DGENRE=Jazz
TTITLE0=There And Back
TTITLE1=Starts Fell On Alabama
TTITLE2=D.M. Blues
TTITLE3=The Spirit Fell
TTITLE4=Dick's Theme
EXTD=YEAR: 1965
EXTT0=
EXTT1=
EXTT2=
EXTT3=
EXTT4=
PLAYORDER=
